<mxfile host="app.diagrams.net" modified="2021-10-19T21:34:47.596Z" agent="5.0 (Windows NT 10.0; Win64; x64) AppleWebKit/537.36 (KHTML, like Gecko) Chrome/94.0.4606.81 Safari/537.36" etag="JsydIqHmOB07L9Xa0FrR" version="15.5.6" type="github">
  <diagram id="EQ9-8ygimjqe4BukqYDz" name="Page-1">
    <mxGraphModel dx="868" dy="1563" grid="1" gridSize="10" guides="1" tooltips="1" connect="1" arrows="1" fold="1" page="1" pageScale="1" pageWidth="850" pageHeight="1100" math="0" shadow="0">
      <root>
        <mxCell id="0" />
        <mxCell id="1" parent="0" />
        <mxCell id="C_YZ6hl0B3hkvbgjSVR_-54" value="" style="rounded=0;whiteSpace=wrap;html=1;shadow=0;sketch=0;fontSize=12;fontColor=#FFFFFF;strokeColor=#FFFFFF;strokeWidth=4;fillColor=default;verticalAlign=bottom;" vertex="1" parent="1">
          <mxGeometry x="40" y="-190" width="760" height="880" as="geometry" />
        </mxCell>
        <mxCell id="C_YZ6hl0B3hkvbgjSVR_-4" value="VPC" style="sketch=0;outlineConnect=0;gradientColor=none;html=1;whiteSpace=wrap;fontSize=15;fontStyle=0;shape=mxgraph.aws4.group;grIcon=mxgraph.aws4.group_vpc;strokeColor=#FF8000;fillColor=none;verticalAlign=top;align=left;spacingLeft=30;fontColor=#879196;dashed=0;strokeWidth=3;perimeterSpacing=0;" vertex="1" parent="1">
          <mxGeometry x="128" y="-30" width="594" height="640" as="geometry" />
        </mxCell>
        <mxCell id="C_YZ6hl0B3hkvbgjSVR_-6" value="EU-WEST-1 REGION" style="sketch=0;outlineConnect=0;gradientColor=none;html=1;whiteSpace=wrap;fontSize=12;fontStyle=0;shape=mxgraph.aws4.group;grIcon=mxgraph.aws4.group_region;strokeColor=#3399FF;fillColor=none;verticalAlign=top;align=left;spacingLeft=30;fontColor=#879196;strokeWidth=4;" vertex="1" parent="1">
          <mxGeometry x="165" y="240" width="520" height="330" as="geometry" />
        </mxCell>
        <mxCell id="C_YZ6hl0B3hkvbgjSVR_-10" value="Auto Scaling Group" style="sketch=0;outlineConnect=0;html=1;whiteSpace=wrap;fontSize=12;fontStyle=0;shape=mxgraph.aws4.groupCenter;grIcon=mxgraph.aws4.group_auto_scaling_group;grStroke=0;strokeColor=#d6b656;fillColor=#fff2cc;verticalAlign=bottom;align=center;spacingTop=25;strokeWidth=6;opacity=70;labelPosition=center;verticalLabelPosition=middle;shadow=0;direction=west;perimeterSpacing=0;textOpacity=0;" vertex="1" parent="1">
          <mxGeometry x="195" y="270" width="460" height="250" as="geometry" />
        </mxCell>
        <mxCell id="C_YZ6hl0B3hkvbgjSVR_-7" value="EU-WEST-1A" style="sketch=0;outlineConnect=0;gradientColor=none;html=1;whiteSpace=wrap;fontSize=12;fontStyle=0;shape=mxgraph.aws4.group;grIcon=mxgraph.aws4.group_availability_zone;strokeColor=#545B64;fillColor=none;verticalAlign=top;align=left;spacingLeft=30;fontColor=#545B64;strokeWidth=4;" vertex="1" parent="1">
          <mxGeometry x="200" y="350" width="140" height="140" as="geometry" />
        </mxCell>
        <mxCell id="C_YZ6hl0B3hkvbgjSVR_-8" value="EU-WEST-1B" style="sketch=0;outlineConnect=0;gradientColor=none;html=1;whiteSpace=wrap;fontSize=12;fontStyle=0;shape=mxgraph.aws4.group;grIcon=mxgraph.aws4.group_availability_zone;strokeColor=#3399FF;fillColor=none;verticalAlign=top;align=left;spacingLeft=30;fontColor=#4D4D4D;strokeWidth=4;" vertex="1" parent="1">
          <mxGeometry x="355" y="350" width="140" height="140" as="geometry" />
        </mxCell>
        <mxCell id="C_YZ6hl0B3hkvbgjSVR_-9" value="EU-WEST-1C" style="sketch=0;outlineConnect=0;gradientColor=none;html=1;whiteSpace=wrap;fontSize=12;fontStyle=0;shape=mxgraph.aws4.group;grIcon=mxgraph.aws4.group_availability_zone;strokeColor=#FF6666;fillColor=none;verticalAlign=top;align=left;spacingLeft=30;fontColor=#545B64;strokeWidth=4;" vertex="1" parent="1">
          <mxGeometry x="510" y="350" width="140" height="140" as="geometry" />
        </mxCell>
        <mxCell id="C_YZ6hl0B3hkvbgjSVR_-11" value="Amazon EC2" style="sketch=0;outlineConnect=0;fontColor=#232F3E;gradientColor=none;strokeColor=#ffffff;fillColor=#232F3E;dashed=0;verticalLabelPosition=middle;verticalAlign=bottom;align=center;html=1;whiteSpace=wrap;fontSize=10;fontStyle=1;spacing=3;shape=mxgraph.aws4.productIcon;prIcon=mxgraph.aws4.ec2;direction=east;" vertex="1" parent="1">
          <mxGeometry x="240" y="373.13" width="60" height="83.75" as="geometry" />
        </mxCell>
        <mxCell id="C_YZ6hl0B3hkvbgjSVR_-13" value="Amazon EC2" style="sketch=0;outlineConnect=0;fontColor=#232F3E;gradientColor=none;strokeColor=#ffffff;fillColor=#232F3E;dashed=0;verticalLabelPosition=middle;verticalAlign=bottom;align=center;html=1;whiteSpace=wrap;fontSize=10;fontStyle=1;spacing=3;shape=mxgraph.aws4.productIcon;prIcon=mxgraph.aws4.ec2;" vertex="1" parent="1">
          <mxGeometry x="395" y="373.13" width="60" height="83.75" as="geometry" />
        </mxCell>
        <mxCell id="C_YZ6hl0B3hkvbgjSVR_-14" value="Application Load Balancer" style="sketch=0;outlineConnect=0;fontColor=#232F3E;gradientColor=none;strokeColor=#ffffff;fillColor=#232F3E;dashed=0;verticalLabelPosition=middle;verticalAlign=bottom;align=center;html=1;whiteSpace=wrap;fontSize=10;fontStyle=1;spacing=3;shape=mxgraph.aws4.productIcon;prIcon=mxgraph.aws4.application_load_balancer;" vertex="1" parent="1">
          <mxGeometry x="395" y="140" width="80" height="110" as="geometry" />
        </mxCell>
        <mxCell id="C_YZ6hl0B3hkvbgjSVR_-27" value="Amazon Route 53" style="sketch=0;outlineConnect=0;fontColor=#232F3E;gradientColor=none;strokeColor=#ffffff;fillColor=#232F3E;dashed=0;verticalLabelPosition=middle;verticalAlign=bottom;align=center;html=1;whiteSpace=wrap;fontSize=10;fontStyle=1;spacing=3;shape=mxgraph.aws4.productIcon;prIcon=mxgraph.aws4.route_53;opacity=70;" vertex="1" parent="1">
          <mxGeometry x="395" y="-30" width="80" height="110" as="geometry" />
        </mxCell>
        <mxCell id="C_YZ6hl0B3hkvbgjSVR_-46" value="" style="edgeStyle=orthogonalEdgeStyle;html=1;endArrow=block;elbow=vertical;startArrow=block;startFill=1;endFill=1;strokeColor=#1A1A1A;rounded=1;fontSize=17;fontColor=#FFFFFF;strokeWidth=3;" edge="1" parent="1" source="C_YZ6hl0B3hkvbgjSVR_-7" target="C_YZ6hl0B3hkvbgjSVR_-14">
          <mxGeometry width="100" relative="1" as="geometry">
            <mxPoint x="240" y="300" as="sourcePoint" />
            <mxPoint x="430" y="270" as="targetPoint" />
            <Array as="points">
              <mxPoint x="270" y="320" />
              <mxPoint x="430" y="320" />
            </Array>
          </mxGeometry>
        </mxCell>
        <mxCell id="C_YZ6hl0B3hkvbgjSVR_-48" value="" style="edgeStyle=orthogonalEdgeStyle;html=1;endArrow=block;elbow=vertical;startArrow=none;startFill=0;endFill=1;strokeColor=#1A1A1A;rounded=1;fontSize=17;fontColor=#FFFFFF;strokeWidth=3;" edge="1" parent="1" target="C_YZ6hl0B3hkvbgjSVR_-9">
          <mxGeometry width="100" relative="1" as="geometry">
            <mxPoint x="430" y="290" as="sourcePoint" />
            <mxPoint x="630" y="320" as="targetPoint" />
            <Array as="points">
              <mxPoint x="430" y="320" />
              <mxPoint x="580" y="320" />
            </Array>
          </mxGeometry>
        </mxCell>
        <mxCell id="C_YZ6hl0B3hkvbgjSVR_-49" value="" style="edgeStyle=orthogonalEdgeStyle;html=1;endArrow=open;elbow=vertical;startArrow=none;endFill=0;strokeColor=#1A1A1A;rounded=0;fontSize=17;fontColor=#FFFFFF;strokeWidth=3;" edge="1" parent="1" source="C_YZ6hl0B3hkvbgjSVR_-14">
          <mxGeometry width="100" relative="1" as="geometry">
            <mxPoint x="390" y="290" as="sourcePoint" />
            <mxPoint x="430" y="340" as="targetPoint" />
            <Array as="points">
              <mxPoint x="430" y="270" />
              <mxPoint x="430" y="270" />
            </Array>
          </mxGeometry>
        </mxCell>
        <mxCell id="C_YZ6hl0B3hkvbgjSVR_-50" value="Auto Scaling" style="sketch=0;outlineConnect=0;fontColor=#232F3E;gradientColor=none;strokeColor=#232F3E;fillColor=#ffffff;dashed=0;verticalLabelPosition=bottom;verticalAlign=top;align=center;html=1;fontSize=12;fontStyle=0;aspect=fixed;shape=mxgraph.aws4.resourceIcon;resIcon=mxgraph.aws4.auto_scaling;shadow=0;opacity=70;" vertex="1" parent="1">
          <mxGeometry x="220" y="270" width="30" height="30" as="geometry" />
        </mxCell>
        <mxCell id="C_YZ6hl0B3hkvbgjSVR_-51" value="" style="edgeStyle=orthogonalEdgeStyle;html=1;endArrow=block;elbow=vertical;startArrow=block;startFill=1;endFill=1;strokeColor=#1A1A1A;rounded=0;fontSize=12;fontColor=#FFFFFF;strokeWidth=3;" edge="1" parent="1" source="C_YZ6hl0B3hkvbgjSVR_-14" target="C_YZ6hl0B3hkvbgjSVR_-27">
          <mxGeometry width="100" relative="1" as="geometry">
            <mxPoint x="390" y="90" as="sourcePoint" />
            <mxPoint x="490" y="90" as="targetPoint" />
            <Array as="points">
              <mxPoint x="435" y="100" />
              <mxPoint x="435" y="100" />
            </Array>
          </mxGeometry>
        </mxCell>
        <mxCell id="C_YZ6hl0B3hkvbgjSVR_-52" value="devices" style="sketch=0;outlineConnect=0;gradientColor=none;fontColor=#545B64;strokeColor=none;fillColor=#879196;dashed=0;verticalLabelPosition=bottom;verticalAlign=top;align=center;html=1;fontSize=12;fontStyle=0;aspect=fixed;shape=mxgraph.aws4.illustration_devices;pointerEvents=1;shadow=0;opacity=70;" vertex="1" parent="1">
          <mxGeometry x="600" y="-130" width="100" height="73" as="geometry" />
        </mxCell>
        <mxCell id="C_YZ6hl0B3hkvbgjSVR_-53" value="" style="edgeStyle=orthogonalEdgeStyle;html=1;endArrow=block;elbow=vertical;startArrow=block;startFill=1;endFill=1;strokeColor=#1A1A1A;fontSize=12;fontColor=#FFFFFF;rounded=1;strokeWidth=3;" edge="1" parent="1" source="C_YZ6hl0B3hkvbgjSVR_-4">
          <mxGeometry width="100" relative="1" as="geometry">
            <mxPoint x="490" y="-80" as="sourcePoint" />
            <mxPoint x="600" y="-70" as="targetPoint" />
            <Array as="points">
              <mxPoint x="425" y="-70" />
            </Array>
          </mxGeometry>
        </mxCell>
      </root>
    </mxGraphModel>
  </diagram>
</mxfile>
